<svg xmlns="http://www.w3.org/2000/svg" width="285" viewBox="0 0 285 57" height="57" version="1.0"><defs><clipPath id="a"><path d="M 3.011719 33 L 15 33 L 15 40 L 3.011719 40 Z M 3.011719 33"/></clipPath><clipPath id="b"><path d="M 3.011719 28 L 16 28 L 16 40 L 3.011719 40 Z M 3.011719 28"/></clipPath><clipPath id="c"><path d="M 14 10 L 48.761719 10 L 48.761719 50.699219 L 14 50.699219 Z M 14 10"/></clipPath><clipPath id="d"><path d="M 35 5.699219 L 45 5.699219 L 45 15 L 35 15 Z M 35 5.699219"/></clipPath></defs><g clip-path="url(#a)"><path fill="#399B53" d="M 5.496094 33.613281 L 3.027344 37.632812 C 7.628906 36.90625 11.375 37.527344 14.253906 39.507812 C 12.160156 36.726562 9.242188 34.761719 5.492188 33.613281 Z M 5.496094 33.613281" fill-rule="evenodd"/></g><g clip-path="url(#b)"><path fill="#333A5D" d="M 3.460938 31.503906 C 8.816406 32.226562 12.972656 34.855469 15.925781 39.390625 C 15.1875 34.808594 12.867188 31.160156 8.957031 28.4375 Z M 3.460938 31.503906" fill-rule="evenodd"/></g><path fill="#399B53" d="M 6.171875 23.976562 C 13.472656 28.683594 17.425781 35.164062 18.039062 43.40625 C 19.257812 36.90625 17.4375 31.078125 12.582031 25.929688 C 16.648438 24.761719 19.785156 22 21.980469 17.648438 C 29.230469 30.269531 26.921875 40.355469 15.054688 47.910156 C 30.085938 42.703125 32.339844 26.828125 21.824219 12.707031 C 19.480469 20.554688 14.265625 24.308594 6.175781 23.976562 Z M 6.171875 23.976562" fill-rule="evenodd"/><g clip-path="url(#c)"><path fill="#333A5D" d="M 24.175781 10.960938 C 36.695312 26.800781 32.714844 44.746094 14.617188 50.699219 C 33.589844 49.601562 44.964844 37.484375 48.75 14.34375 C 43.757812 21.109375 35.566406 19.984375 24.175781 10.960938 Z M 24.175781 10.960938" fill-rule="evenodd"/></g><g clip-path="url(#d)"><path fill="#333A5D" d="M 39.824219 14.855469 C 42.347656 14.855469 44.40625 12.800781 44.40625 10.277344 C 44.40625 7.753906 42.351562 5.695312 39.824219 5.695312 C 37.304688 5.695312 35.242188 7.75 35.242188 10.277344 C 35.242188 12.796875 37.304688 14.855469 39.824219 14.855469 Z M 39.824219 14.855469" fill-rule="evenodd"/></g><path fill="#399B53" d="M 22.121094 29.675781 C 22.273438 29.9375 22.195312 30.195312 21.878906 30.445312 L 21.292969 29.425781 C 21.535156 29.386719 21.714844 29.386719 21.835938 29.421875 C 21.953125 29.464844 22.050781 29.546875 22.125 29.671875 Z M 19.878906 28.5625 C 19.636719 28.601562 19.464844 28.601562 19.347656 28.5625 C 19.230469 28.515625 19.140625 28.441406 19.078125 28.332031 C 19.011719 28.214844 18.992188 28.09375 19.027344 27.964844 C 19.058594 27.839844 19.152344 27.710938 19.316406 27.585938 L 19.882812 28.566406 Z M 23.152344 29.007812 C 22.917969 28.601562 22.605469 28.347656 22.210938 28.25 C 21.820312 28.148438 21.304688 28.179688 20.667969 28.347656 L 20.035156 27.253906 C 20.210938 27.199219 20.394531 27.171875 20.589844 27.160156 C 20.785156 27.148438 20.980469 27.148438 21.183594 27.164062 L 21.179688 26.03125 C 20.898438 26.007812 20.625 26.015625 20.351562 26.050781 C 20.078125 26.089844 19.800781 26.164062 19.515625 26.273438 L 19.265625 25.839844 L 18.507812 26.273438 L 18.75 26.695312 C 18.539062 26.851562 18.359375 27.019531 18.214844 27.207031 C 18.066406 27.390625 17.964844 27.585938 17.902344 27.785156 C 17.839844 27.988281 17.820312 28.1875 17.84375 28.398438 C 17.867188 28.601562 17.9375 28.808594 18.054688 29.011719 C 18.175781 29.226562 18.316406 29.394531 18.472656 29.519531 C 18.632812 29.644531 18.8125 29.730469 19.011719 29.777344 C 19.210938 29.828125 19.433594 29.835938 19.679688 29.8125 C 19.925781 29.789062 20.203125 29.738281 20.507812 29.660156 L 21.175781 30.816406 C 20.933594 30.898438 20.691406 30.941406 20.445312 30.949219 C 20.203125 30.957031 19.9375 30.945312 19.648438 30.90625 L 19.558594 32.0625 C 19.90625 32.109375 20.265625 32.105469 20.625 32.054688 C 20.984375 32 21.335938 31.90625 21.671875 31.761719 L 22.097656 32.496094 L 22.855469 32.0625 L 22.441406 31.339844 C 22.660156 31.183594 22.839844 31.007812 22.984375 30.820312 C 23.128906 30.636719 23.230469 30.441406 23.292969 30.242188 C 23.359375 30.039062 23.375 29.835938 23.359375 29.628906 C 23.339844 29.417969 23.269531 29.214844 23.152344 29.011719 Z M 23.152344 29.007812" fill-rule="evenodd"/><g fill="#333A5D"><g><g><path d="M 4.453125 0 C 3.054688 0 2.359375 -0.695312 2.359375 -2.09375 L 2.359375 -19.5625 C 2.359375 -20.945312 3.054688 -21.640625 4.453125 -21.640625 L 15.40625 -21.640625 C 16.476562 -21.640625 17.015625 -21.128906 17.015625 -20.109375 C 17.015625 -19.046875 16.476562 -18.515625 15.40625 -18.515625 L 6.140625 -18.515625 L 6.140625 -12.5625 L 14.734375 -12.5625 C 15.796875 -12.5625 16.328125 -12.035156 16.328125 -10.984375 C 16.328125 -9.941406 15.796875 -9.421875 14.734375 -9.421875 L 6.140625 -9.421875 L 6.140625 -3.125 L 15.40625 -3.125 C 16.476562 -3.125 17.015625 -2.601562 17.015625 -1.5625 C 17.015625 -0.519531 16.476562 0 15.40625 0 Z M 4.453125 0" transform="translate(51.278 39.679)"/></g></g></g><g fill="#333A5D"><g><g><path d="M 3.046875 0.15625 C 2.585938 0.15625 2.207031 0.03125 1.90625 -0.21875 C 1.613281 -0.476562 1.460938 -0.8125 1.453125 -1.21875 C 1.441406 -1.632812 1.613281 -2.066406 1.96875 -2.515625 L 6.203125 -7.734375 L 2.265625 -12.59375 C 1.898438 -13.039062 1.726562 -13.46875 1.75 -13.875 C 1.769531 -14.28125 1.925781 -14.613281 2.21875 -14.875 C 2.519531 -15.132812 2.894531 -15.265625 3.34375 -15.265625 C 3.8125 -15.265625 4.203125 -15.179688 4.515625 -15.015625 C 4.835938 -14.847656 5.132812 -14.59375 5.40625 -14.25 L 8.40625 -10.375 L 11.453125 -14.25 C 11.734375 -14.59375 12.023438 -14.847656 12.328125 -15.015625 C 12.640625 -15.179688 13.023438 -15.265625 13.484375 -15.265625 C 13.953125 -15.265625 14.328125 -15.128906 14.609375 -14.859375 C 14.898438 -14.597656 15.050781 -14.257812 15.0625 -13.84375 C 15.070312 -13.4375 14.890625 -13.007812 14.515625 -12.5625 L 10.59375 -7.734375 L 14.859375 -2.515625 C 15.222656 -2.085938 15.394531 -1.664062 15.375 -1.25 C 15.351562 -0.84375 15.195312 -0.503906 14.90625 -0.234375 C 14.613281 0.0234375 14.226562 0.15625 13.75 0.15625 C 12.9375 0.15625 12.265625 -0.179688 11.734375 -0.859375 L 8.375 -5.0625 L 5.0625 -0.859375 C 4.800781 -0.535156 4.515625 -0.285156 4.203125 -0.109375 C 3.898438 0.0664062 3.515625 0.15625 3.046875 0.15625 Z M 3.046875 0.15625" transform="translate(68.992 39.679)"/></g></g></g><g fill="#333A5D"><g><g><path d="M 3.90625 5.765625 C 2.632812 5.765625 2 5.125 2 3.84375 L 2 -13.328125 C 2 -14.617188 2.625 -15.265625 3.875 -15.265625 C 5.132812 -15.265625 5.765625 -14.617188 5.765625 -13.328125 L 5.765625 -12.6875 C 6.203125 -13.476562 6.847656 -14.113281 7.703125 -14.59375 C 8.566406 -15.082031 9.550781 -15.328125 10.65625 -15.328125 C 11.96875 -15.328125 13.117188 -15.007812 14.109375 -14.375 C 15.097656 -13.738281 15.867188 -12.84375 16.421875 -11.6875 C 16.972656 -10.53125 17.25 -9.140625 17.25 -7.515625 C 17.25 -5.921875 16.972656 -4.535156 16.421875 -3.359375 C 15.867188 -2.179688 15.101562 -1.273438 14.125 -0.640625 C 13.144531 -0.00390625 11.988281 0.3125 10.65625 0.3125 C 9.59375 0.3125 8.632812 0.0820312 7.78125 -0.375 C 6.9375 -0.84375 6.285156 -1.460938 5.828125 -2.234375 L 5.828125 3.84375 C 5.828125 5.125 5.1875 5.765625 3.90625 5.765625 Z M 9.578125 -2.609375 C 10.722656 -2.609375 11.644531 -3.019531 12.34375 -3.84375 C 13.039062 -4.675781 13.390625 -5.898438 13.390625 -7.515625 C 13.390625 -9.160156 13.039062 -10.382812 12.34375 -11.1875 C 11.644531 -12 10.722656 -12.40625 9.578125 -12.40625 C 8.429688 -12.40625 7.507812 -12 6.8125 -11.1875 C 6.113281 -10.382812 5.765625 -9.160156 5.765625 -7.515625 C 5.765625 -5.898438 6.113281 -4.675781 6.8125 -3.84375 C 7.507812 -3.019531 8.429688 -2.609375 9.578125 -2.609375 Z M 9.578125 -2.609375" transform="translate(85.14 39.679)"/></g></g></g><g fill="#333A5D"><g><g><path d="M 9.390625 0.3125 C 7.691406 0.3125 6.226562 -0.00390625 5 -0.640625 C 3.769531 -1.273438 2.820312 -2.175781 2.15625 -3.34375 C 1.5 -4.507812 1.171875 -5.890625 1.171875 -7.484375 C 1.171875 -9.046875 1.488281 -10.410156 2.125 -11.578125 C 2.769531 -12.742188 3.660156 -13.660156 4.796875 -14.328125 C 5.941406 -14.992188 7.238281 -15.328125 8.6875 -15.328125 C 10.8125 -15.328125 12.492188 -14.648438 13.734375 -13.296875 C 14.972656 -11.941406 15.59375 -10.097656 15.59375 -7.765625 C 15.59375 -7.003906 15.101562 -6.625 14.125 -6.625 L 4.84375 -6.625 C 5.132812 -3.945312 6.671875 -2.609375 9.453125 -2.609375 C 9.984375 -2.609375 10.582031 -2.675781 11.25 -2.8125 C 11.914062 -2.945312 12.546875 -3.175781 13.140625 -3.5 C 13.671875 -3.800781 14.117188 -3.894531 14.484375 -3.78125 C 14.859375 -3.675781 15.117188 -3.457031 15.265625 -3.125 C 15.421875 -2.800781 15.441406 -2.4375 15.328125 -2.03125 C 15.222656 -1.632812 14.9375 -1.296875 14.46875 -1.015625 C 13.75 -0.566406 12.921875 -0.234375 11.984375 -0.015625 C 11.054688 0.203125 10.191406 0.3125 9.390625 0.3125 Z M 8.84375 -12.71875 C 7.71875 -12.71875 6.804688 -12.367188 6.109375 -11.671875 C 5.410156 -10.972656 4.988281 -10.03125 4.84375 -8.84375 L 12.40625 -8.84375 C 12.320312 -10.09375 11.976562 -11.050781 11.375 -11.71875 C 10.769531 -12.382812 9.925781 -12.71875 8.84375 -12.71875 Z M 8.84375 -12.71875" transform="translate(102.945 39.679)"/></g></g></g><g fill="#333A5D"><g><g><path d="M 3.90625 0.25 C 2.632812 0.25 2 -0.40625 2 -1.71875 L 2 -13.328125 C 2 -14.617188 2.625 -15.265625 3.875 -15.265625 C 5.113281 -15.265625 5.734375 -14.617188 5.734375 -13.328125 L 5.734375 -12.6875 C 6.253906 -13.539062 6.945312 -14.191406 7.8125 -14.640625 C 8.6875 -15.097656 9.664062 -15.328125 10.75 -15.328125 C 14.289062 -15.328125 16.0625 -13.269531 16.0625 -9.15625 L 16.0625 -1.71875 C 16.0625 -0.40625 15.425781 0.25 14.15625 0.25 C 12.863281 0.25 12.21875 -0.40625 12.21875 -1.71875 L 12.21875 -8.96875 C 12.21875 -10.132812 12 -10.984375 11.5625 -11.515625 C 11.125 -12.046875 10.441406 -12.3125 9.515625 -12.3125 C 8.390625 -12.3125 7.492188 -11.957031 6.828125 -11.25 C 6.160156 -10.539062 5.828125 -9.601562 5.828125 -8.4375 L 5.828125 -1.71875 C 5.828125 -0.40625 5.1875 0.25 3.90625 0.25 Z M 3.90625 0.25" transform="translate(118.97 39.679)"/></g></g></g><g fill="#333A5D"><g><g><path d="M 7.484375 0.3125 C 6.609375 0.3125 5.675781 0.21875 4.6875 0.03125 C 3.707031 -0.15625 2.832031 -0.472656 2.0625 -0.921875 C 1.625 -1.171875 1.351562 -1.472656 1.25 -1.828125 C 1.15625 -2.179688 1.171875 -2.515625 1.296875 -2.828125 C 1.429688 -3.148438 1.65625 -3.382812 1.96875 -3.53125 C 2.289062 -3.675781 2.664062 -3.644531 3.09375 -3.4375 C 3.914062 -3.050781 4.6875 -2.78125 5.40625 -2.625 C 6.125 -2.46875 6.828125 -2.390625 7.515625 -2.390625 C 8.503906 -2.390625 9.238281 -2.554688 9.71875 -2.890625 C 10.195312 -3.234375 10.4375 -3.679688 10.4375 -4.234375 C 10.4375 -5.097656 9.800781 -5.648438 8.53125 -5.890625 L 5.46875 -6.484375 C 2.863281 -6.972656 1.5625 -8.320312 1.5625 -10.53125 C 1.5625 -11.507812 1.832031 -12.359375 2.375 -13.078125 C 2.914062 -13.796875 3.664062 -14.347656 4.625 -14.734375 C 5.59375 -15.128906 6.703125 -15.328125 7.953125 -15.328125 C 9.753906 -15.328125 11.359375 -14.925781 12.765625 -14.125 C 13.160156 -13.914062 13.394531 -13.628906 13.46875 -13.265625 C 13.539062 -12.910156 13.5 -12.578125 13.34375 -12.265625 C 13.1875 -11.953125 12.941406 -11.726562 12.609375 -11.59375 C 12.285156 -11.457031 11.910156 -11.492188 11.484375 -11.703125 C 10.847656 -12.023438 10.238281 -12.257812 9.65625 -12.40625 C 9.070312 -12.550781 8.515625 -12.625 7.984375 -12.625 C 6.984375 -12.625 6.238281 -12.445312 5.75 -12.09375 C 5.269531 -11.75 5.03125 -11.289062 5.03125 -10.71875 C 5.03125 -9.8125 5.613281 -9.257812 6.78125 -9.0625 L 9.859375 -8.46875 C 11.179688 -8.226562 12.1875 -7.78125 12.875 -7.125 C 13.5625 -6.46875 13.90625 -5.585938 13.90625 -4.484375 C 13.90625 -2.984375 13.320312 -1.804688 12.15625 -0.953125 C 10.988281 -0.109375 9.429688 0.3125 7.484375 0.3125 Z M 7.484375 0.3125" transform="translate(136.316 39.679)"/></g></g></g><g fill="#333A5D"><g><g><path d="M 9.390625 0.3125 C 7.691406 0.3125 6.226562 -0.00390625 5 -0.640625 C 3.769531 -1.273438 2.820312 -2.175781 2.15625 -3.34375 C 1.5 -4.507812 1.171875 -5.890625 1.171875 -7.484375 C 1.171875 -9.046875 1.488281 -10.410156 2.125 -11.578125 C 2.769531 -12.742188 3.660156 -13.660156 4.796875 -14.328125 C 5.941406 -14.992188 7.238281 -15.328125 8.6875 -15.328125 C 10.8125 -15.328125 12.492188 -14.648438 13.734375 -13.296875 C 14.972656 -11.941406 15.59375 -10.097656 15.59375 -7.765625 C 15.59375 -7.003906 15.101562 -6.625 14.125 -6.625 L 4.84375 -6.625 C 5.132812 -3.945312 6.671875 -2.609375 9.453125 -2.609375 C 9.984375 -2.609375 10.582031 -2.675781 11.25 -2.8125 C 11.914062 -2.945312 12.546875 -3.175781 13.140625 -3.5 C 13.671875 -3.800781 14.117188 -3.894531 14.484375 -3.78125 C 14.859375 -3.675781 15.117188 -3.457031 15.265625 -3.125 C 15.421875 -2.800781 15.441406 -2.4375 15.328125 -2.03125 C 15.222656 -1.632812 14.9375 -1.296875 14.46875 -1.015625 C 13.75 -0.566406 12.921875 -0.234375 11.984375 -0.015625 C 11.054688 0.203125 10.191406 0.3125 9.390625 0.3125 Z M 8.84375 -12.71875 C 7.71875 -12.71875 6.804688 -12.367188 6.109375 -11.671875 C 5.410156 -10.972656 4.988281 -10.03125 4.84375 -8.84375 L 12.40625 -8.84375 C 12.320312 -10.09375 11.976562 -11.050781 11.375 -11.71875 C 10.769531 -12.382812 9.925781 -12.71875 8.84375 -12.71875 Z M 8.84375 -12.71875" transform="translate(150.683 39.679)"/></g></g></g><g fill="#333A5D"><g><g><path d="M 9.546875 0.25 C 8.234375 0.25 7.578125 -0.425781 7.578125 -1.78125 L 7.578125 -18.359375 L 1.59375 -18.359375 C 0.46875 -18.359375 -0.09375 -18.910156 -0.09375 -20.015625 C -0.09375 -21.097656 0.46875 -21.640625 1.59375 -21.640625 L 17.5 -21.640625 C 18.625 -21.640625 19.1875 -21.097656 19.1875 -20.015625 C 19.1875 -18.910156 18.625 -18.359375 17.5 -18.359375 L 11.515625 -18.359375 L 11.515625 -1.78125 C 11.515625 -0.425781 10.859375 0.25 9.546875 0.25 Z M 9.546875 0.25" transform="translate(174.414 39.679)"/></g></g></g><g fill="#333A5D"><g><g><path d="M 3.953125 0.25 C 2.648438 0.25 2 -0.40625 2 -1.71875 L 2 -13.328125 C 2 -14.617188 2.625 -15.265625 3.875 -15.265625 C 5.113281 -15.265625 5.734375 -14.617188 5.734375 -13.328125 L 5.734375 -12.375 C 6.472656 -14.132812 8.050781 -15.117188 10.46875 -15.328125 C 11.351562 -15.421875 11.84375 -14.914062 11.9375 -13.8125 C 12.039062 -12.726562 11.507812 -12.125 10.34375 -12 L 9.671875 -11.9375 C 7.148438 -11.695312 5.890625 -10.410156 5.890625 -8.078125 L 5.890625 -1.71875 C 5.890625 -0.40625 5.242188 0.25 3.953125 0.25 Z M 3.953125 0.25" transform="translate(192.864 39.679)"/></g></g></g><g fill="#333A5D"><g><g><path d="M 6.9375 0.3125 C 5.851562 0.3125 4.882812 0.101562 4.03125 -0.3125 C 3.1875 -0.738281 2.519531 -1.304688 2.03125 -2.015625 C 1.550781 -2.734375 1.3125 -3.546875 1.3125 -4.453125 C 1.3125 -5.554688 1.597656 -6.429688 2.171875 -7.078125 C 2.753906 -7.722656 3.6875 -8.1875 4.96875 -8.46875 C 6.257812 -8.757812 7.988281 -8.90625 10.15625 -8.90625 L 11.234375 -8.90625 L 11.234375 -9.546875 C 11.234375 -10.566406 11.007812 -11.300781 10.5625 -11.75 C 10.113281 -12.207031 9.359375 -12.4375 8.296875 -12.4375 C 7.703125 -12.4375 7.0625 -12.363281 6.375 -12.21875 C 5.6875 -12.070312 4.960938 -11.828125 4.203125 -11.484375 C 3.710938 -11.253906 3.300781 -11.226562 2.96875 -11.40625 C 2.644531 -11.582031 2.425781 -11.859375 2.3125 -12.234375 C 2.207031 -12.609375 2.226562 -12.988281 2.375 -13.375 C 2.53125 -13.769531 2.84375 -14.0625 3.3125 -14.25 C 4.257812 -14.632812 5.164062 -14.910156 6.03125 -15.078125 C 6.90625 -15.242188 7.695312 -15.328125 8.40625 -15.328125 C 10.601562 -15.328125 12.234375 -14.816406 13.296875 -13.796875 C 14.359375 -12.785156 14.890625 -11.21875 14.890625 -9.09375 L 14.890625 -1.71875 C 14.890625 -0.40625 14.296875 0.25 13.109375 0.25 C 11.898438 0.25 11.296875 -0.40625 11.296875 -1.71875 L 11.296875 -2.390625 C 10.953125 -1.554688 10.398438 -0.894531 9.640625 -0.40625 C 8.878906 0.0703125 7.976562 0.3125 6.9375 0.3125 Z M 7.734375 -2.328125 C 8.734375 -2.328125 9.566406 -2.675781 10.234375 -3.375 C 10.898438 -4.070312 11.234375 -4.953125 11.234375 -6.015625 L 11.234375 -6.6875 L 10.1875 -6.6875 C 8.269531 -6.6875 6.9375 -6.535156 6.1875 -6.234375 C 5.4375 -5.941406 5.0625 -5.410156 5.0625 -4.640625 C 5.0625 -3.960938 5.296875 -3.40625 5.765625 -2.96875 C 6.242188 -2.539062 6.898438 -2.328125 7.734375 -2.328125 Z M 7.734375 -2.328125" transform="translate(204.284 39.679)"/></g></g></g><g fill="#333A5D"><g><g><path d="M 8.9375 0.3125 C 7.363281 0.3125 5.988281 -0.0078125 4.8125 -0.65625 C 3.644531 -1.300781 2.742188 -2.21875 2.109375 -3.40625 C 1.484375 -4.59375 1.171875 -5.984375 1.171875 -7.578125 C 1.171875 -9.179688 1.484375 -10.5625 2.109375 -11.71875 C 2.742188 -12.875 3.644531 -13.765625 4.8125 -14.390625 C 5.988281 -15.015625 7.363281 -15.328125 8.9375 -15.328125 C 9.613281 -15.328125 10.34375 -15.234375 11.125 -15.046875 C 11.914062 -14.859375 12.660156 -14.550781 13.359375 -14.125 C 13.765625 -13.875 14.003906 -13.554688 14.078125 -13.171875 C 14.148438 -12.785156 14.097656 -12.425781 13.921875 -12.09375 C 13.742188 -11.769531 13.488281 -11.535156 13.15625 -11.390625 C 12.820312 -11.242188 12.4375 -11.296875 12 -11.546875 C 11.0625 -12.078125 10.148438 -12.34375 9.265625 -12.34375 C 7.941406 -12.34375 6.914062 -11.925781 6.1875 -11.09375 C 5.457031 -10.269531 5.09375 -9.085938 5.09375 -7.546875 C 5.09375 -6.035156 5.457031 -4.84375 6.1875 -3.96875 C 6.914062 -3.101562 7.941406 -2.671875 9.265625 -2.671875 C 10.148438 -2.671875 11.0625 -2.925781 12 -3.4375 C 12.4375 -3.6875 12.816406 -3.738281 13.140625 -3.59375 C 13.460938 -3.445312 13.695312 -3.203125 13.84375 -2.859375 C 13.988281 -2.523438 14.019531 -2.171875 13.9375 -1.796875 C 13.851562 -1.421875 13.617188 -1.109375 13.234375 -0.859375 C 12.554688 -0.453125 11.835938 -0.15625 11.078125 0.03125 C 10.328125 0.21875 9.613281 0.3125 8.9375 0.3125 Z M 8.9375 0.3125" transform="translate(220.463 39.679)"/></g></g></g><g fill="#333A5D"><g><g><path d="M 3.90625 0.25 C 2.632812 0.25 2 -0.40625 2 -1.71875 L 2 -19.953125 C 2 -21.242188 2.632812 -21.890625 3.90625 -21.890625 C 5.1875 -21.890625 5.828125 -21.242188 5.828125 -19.953125 L 5.828125 -8.625 L 5.890625 -8.625 L 10.96875 -13.96875 C 11.375 -14.375 11.726562 -14.691406 12.03125 -14.921875 C 12.34375 -15.148438 12.765625 -15.265625 13.296875 -15.265625 C 13.828125 -15.265625 14.226562 -15.125 14.5 -14.84375 C 14.78125 -14.570312 14.921875 -14.238281 14.921875 -13.84375 C 14.921875 -13.457031 14.738281 -13.070312 14.375 -12.6875 L 9.765625 -7.828125 L 14.890625 -2.296875 C 15.253906 -1.910156 15.421875 -1.515625 15.390625 -1.109375 C 15.359375 -0.710938 15.191406 -0.382812 14.890625 -0.125 C 14.585938 0.125 14.195312 0.25 13.71875 0.25 C 13.144531 0.25 12.6875 0.132812 12.34375 -0.09375 C 12.007812 -0.320312 11.640625 -0.660156 11.234375 -1.109375 L 5.890625 -6.6875 L 5.828125 -6.6875 L 5.828125 -1.71875 C 5.828125 -0.40625 5.1875 0.25 3.90625 0.25 Z M 3.90625 0.25" transform="translate(234.34 39.679)"/></g></g></g><g fill="#333A5D"><g><g><path d="M 9.390625 0.3125 C 7.691406 0.3125 6.226562 -0.00390625 5 -0.640625 C 3.769531 -1.273438 2.820312 -2.175781 2.15625 -3.34375 C 1.5 -4.507812 1.171875 -5.890625 1.171875 -7.484375 C 1.171875 -9.046875 1.488281 -10.410156 2.125 -11.578125 C 2.769531 -12.742188 3.660156 -13.660156 4.796875 -14.328125 C 5.941406 -14.992188 7.238281 -15.328125 8.6875 -15.328125 C 10.8125 -15.328125 12.492188 -14.648438 13.734375 -13.296875 C 14.972656 -11.941406 15.59375 -10.097656 15.59375 -7.765625 C 15.59375 -7.003906 15.101562 -6.625 14.125 -6.625 L 4.84375 -6.625 C 5.132812 -3.945312 6.671875 -2.609375 9.453125 -2.609375 C 9.984375 -2.609375 10.582031 -2.675781 11.25 -2.8125 C 11.914062 -2.945312 12.546875 -3.175781 13.140625 -3.5 C 13.671875 -3.800781 14.117188 -3.894531 14.484375 -3.78125 C 14.859375 -3.675781 15.117188 -3.457031 15.265625 -3.125 C 15.421875 -2.800781 15.441406 -2.4375 15.328125 -2.03125 C 15.222656 -1.632812 14.9375 -1.296875 14.46875 -1.015625 C 13.75 -0.566406 12.921875 -0.234375 11.984375 -0.015625 C 11.054688 0.203125 10.191406 0.3125 9.390625 0.3125 Z M 8.84375 -12.71875 C 7.71875 -12.71875 6.804688 -12.367188 6.109375 -11.671875 C 5.410156 -10.972656 4.988281 -10.03125 4.84375 -8.84375 L 12.40625 -8.84375 C 12.320312 -10.09375 11.976562 -11.050781 11.375 -11.71875 C 10.769531 -12.382812 9.925781 -12.71875 8.84375 -12.71875 Z M 8.84375 -12.71875" transform="translate(250.18 39.679)"/></g></g></g><g fill="#333A5D"><g><g><path d="M 3.953125 0.25 C 2.648438 0.25 2 -0.40625 2 -1.71875 L 2 -13.328125 C 2 -14.617188 2.625 -15.265625 3.875 -15.265625 C 5.113281 -15.265625 5.734375 -14.617188 5.734375 -13.328125 L 5.734375 -12.375 C 6.472656 -14.132812 8.050781 -15.117188 10.46875 -15.328125 C 11.351562 -15.421875 11.84375 -14.914062 11.9375 -13.8125 C 12.039062 -12.726562 11.507812 -12.125 10.34375 -12 L 9.671875 -11.9375 C 7.148438 -11.695312 5.890625 -10.410156 5.890625 -8.078125 L 5.890625 -1.71875 C 5.890625 -0.40625 5.242188 0.25 3.953125 0.25 Z M 3.953125 0.25" transform="translate(266.205 39.679)"/></g></g></g></svg>